<svg xmlns="http://www.w3.org/2000/svg" width="126.428" height="39.938" viewBox="0 0 126.428 39.938">
  <g id="Layer_1-2" transform="translate(0 0.01)">
    <g id="Groupe_74" data-name="Groupe 74" transform="translate(0 -0.01)">
      <path id="Tracé_5" data-name="Tracé 5" d="M11.259,31.8,7.43,40.789H0L17.473,1.96h7.1L42.1,40.786H34.556L30.672,31.8l-2.384-5.659L20.966,9.169,13.7,26.142,11.259,31.8Z" transform="translate(0 -1.403)" fill="#fff"/>
      <path id="Tracé_6" data-name="Tracé 6" d="M199.717,40.789l-.057-25.737-12.755,21.3h-3.219L170.928,15.383V40.789H164.05V1.96h5.936L185.406,27.7,200.551,1.96h5.936l.054,38.826H199.72Z" transform="translate(-117.653 -1.403)" fill="#fff"/>
      <path id="Tracé_7" data-name="Tracé 7" d="M344.049,38.655a18.125,18.125,0,0,1-6.629-3.385l2.495-5.6a19.625,19.625,0,0,0,5.852,3.08,21.289,21.289,0,0,0,6.96,1.194q4.327,0,6.463-1.386a4.2,4.2,0,0,0,2.135-3.663,3.549,3.549,0,0,0-1.194-2.746,8.364,8.364,0,0,0-3.023-1.691q-1.833-.611-4.992-1.386a57.64,57.64,0,0,1-7.184-2.11,11.8,11.8,0,0,1-4.715-3.3,8.9,8.9,0,0,1-1.971-6.075,10.359,10.359,0,0,1,1.748-5.852,11.847,11.847,0,0,1,5.269-4.189A21.354,21.354,0,0,1,353.889-.01a27.884,27.884,0,0,1,6.989.888,19.321,19.321,0,0,1,5.934,2.551l-2.274,5.6a22.45,22.45,0,0,0-5.326-2.274,19.931,19.931,0,0,0-5.379-.778q-4.272,0-6.352,1.442a4.453,4.453,0,0,0-2.082,3.829,3.462,3.462,0,0,0,1.194,2.718,8.612,8.612,0,0,0,3.023,1.666q1.828.611,4.992,1.386a52.384,52.384,0,0,1,7.1,2.079,12.154,12.154,0,0,1,4.743,3.3,8.7,8.7,0,0,1,1.968,5.99,10.223,10.223,0,0,1-1.748,5.823,11.874,11.874,0,0,1-5.3,4.16,21.559,21.559,0,0,1-8.652,1.553,29.589,29.589,0,0,1-8.68-1.276Z" transform="translate(-241.989 0.01)" fill="#fff"/>
    </g>
    <circle id="Ellipse_2" data-name="Ellipse 2" cx="3.9" cy="3.9" r="3.9" transform="translate(17.173 31.533)" fill="#e7343f"/>
  </g>
</svg>
