<svg xmlns="http://www.w3.org/2000/svg" width="78.295" height="73.881" viewBox="0 0 78.295 73.881">
  <g id="Groupe_85" data-name="Groupe 85" transform="translate(-553.205 -848.801)">
    <rect id="Rectangle_77" data-name="Rectangle 77" width="72.054" height="57.87" rx="13.124" transform="translate(559.446 853.34)" fill="#4dc3f7"/>
    <g id="Groupe_83" data-name="Groupe 83" transform="translate(600.528 907.238)">
      <path id="Tracé_13" data-name="Tracé 13" d="M738.6,537v13.066a2.14,2.14,0,0,1-1.356,2.065,1.841,1.841,0,0,1-2.082-.6l-6.536-7.812-6.706,8.017a1.892,1.892,0,0,1-1.441.7,1.769,1.769,0,0,1-.635-.113,2.122,2.122,0,0,1-1.362-2.054L718.41,537Z" transform="translate(-718.41 -537)" fill="#4dc3f7"/>
    </g>
    <g id="Groupe_84" data-name="Groupe 84" transform="translate(553.205 848.801)">
      <g id="Groupe_79" data-name="Groupe 79" transform="translate(0 0)">
        <path id="Tracé_14" data-name="Tracé 14" d="M701.936,434H641.252A6.257,6.257,0,0,0,635,440.252v45.933a6.257,6.257,0,0,0,6.252,6.252h35.732v-2.269H641.252a3.988,3.988,0,0,1-3.983-3.983V440.252a3.988,3.988,0,0,1,3.983-3.983h60.684a3.988,3.988,0,0,1,3.983,3.983v45.933a3.988,3.988,0,0,1-3.983,3.983h-1.123v2.269h1.123a6.257,6.257,0,0,0,6.252-6.252V440.252A6.257,6.257,0,0,0,701.936,434Z" transform="translate(-635 -434)" fill="#273583"/>
      </g>
      <path id="Tracé_15" data-name="Tracé 15" d="M675.053,456.623a.94.94,0,0,1,.938-.938h2.532a1,1,0,0,1,.929.938.939.939,0,0,1-.938.938h-2.53a.94.94,0,0,1-.938-.938Z" transform="translate(-652.325 -443.382)" fill="#273583"/>
      <path id="Tracé_16" data-name="Tracé 16" d="M660.013,456.623a.94.94,0,0,1,.938-.938h2.532a1.092,1.092,0,0,1,.938.938.939.939,0,0,1-.938.938h-2.54a.94.94,0,0,1-.938-.938Z" transform="translate(-645.818 -443.382)" fill="#273583"/>
      <path id="Tracé_17" data-name="Tracé 17" d="M675.064,474.14a.886.886,0,0,1,.831-.938.849.849,0,0,1,.107,0h2.532a1,1,0,0,1,.918.938.939.939,0,0,1-.938.938h-2.53a.94.94,0,0,1-.938-.938Z" transform="translate(-652.325 -450.96)" fill="#273583"/>
      <path id="Tracé_18" data-name="Tracé 18" d="M660.024,474.14a.886.886,0,0,1,.831-.938.85.85,0,0,1,.107,0h2.531a1.092,1.092,0,0,1,.938.938.939.939,0,0,1-.938.938h-2.551a.94.94,0,0,1-.938-.938Z" transform="translate(-645.818 -450.96)" fill="#273583"/>
      <path id="Tracé_19" data-name="Tracé 19" d="M660,491.989a.886.886,0,0,1,.831-.938.849.849,0,0,1,.107,0h2.532a.938.938,0,0,1,0,1.875h-2.532A.94.94,0,0,1,660,491.989Z" transform="translate(-645.817 -458.682)" fill="#273583"/>
      <path id="Tracé_20" data-name="Tracé 20" d="M675.043,491.989a.886.886,0,0,1,.831-.938.851.851,0,0,1,.107,0h2.532a.885.885,0,0,1,.937.831.849.849,0,0,1,0,.107.939.939,0,0,1-.938.938h-2.53a.94.94,0,0,1-.938-.938Z" transform="translate(-652.324 -458.682)" fill="#273583"/>
      <path id="Tracé_21" data-name="Tracé 21" d="M675.043,509.507a.886.886,0,0,1,.831-.938.851.851,0,0,1,.107,0h2.532a.885.885,0,0,1,.937.831.832.832,0,0,1,0,.106.939.939,0,0,1-.938.938h-2.53a.94.94,0,0,1-.938-.938Z" transform="translate(-652.324 -466.261)" fill="#273583"/>
      <path id="Tracé_22" data-name="Tracé 22" d="M660,509.5a.886.886,0,0,1,.831-.938.849.849,0,0,1,.107,0h2.532a.938.938,0,0,1,0,1.875h-2.532A.94.94,0,0,1,660,509.5Z" transform="translate(-645.817 -466.26)" fill="#273583"/>
      <path id="Tracé_23" data-name="Tracé 23" d="M706.053,456.623a.94.94,0,0,1,.938-.938h2.532a1,1,0,0,1,.929.938.939.939,0,0,1-.938.938h-2.53a.94.94,0,0,1-.938-.938Z" transform="translate(-665.737 -443.382)" fill="#273583"/>
      <path id="Tracé_24" data-name="Tracé 24" d="M691.013,456.623a.94.94,0,0,1,.938-.938h2.532a1.093,1.093,0,0,1,.938.938.939.939,0,0,1-.938.938h-2.54a.94.94,0,0,1-.938-.938Z" transform="translate(-659.23 -443.382)" fill="#273583"/>
      <path id="Tracé_25" data-name="Tracé 25" d="M706.064,474.14a.886.886,0,0,1,.831-.938.85.85,0,0,1,.107,0h2.532a1,1,0,0,1,.918.938.939.939,0,0,1-.938.938h-2.53a.94.94,0,0,1-.938-.938Z" transform="translate(-665.737 -450.96)" fill="#273583"/>
      <path id="Tracé_26" data-name="Tracé 26" d="M691.024,474.14a.886.886,0,0,1,.831-.938.85.85,0,0,1,.107,0h2.531a1.092,1.092,0,0,1,.938.938.939.939,0,0,1-.938.938h-2.551a.94.94,0,0,1-.938-.938Z" transform="translate(-659.23 -450.96)" fill="#273583"/>
      <path id="Tracé_27" data-name="Tracé 27" d="M735.053,456.623a.939.939,0,0,1,.938-.938h2.531a1,1,0,0,1,.929.938.939.939,0,0,1-.938.938h-2.53a.94.94,0,0,1-.938-.938Z" transform="translate(-678.284 -443.382)" fill="#273583"/>
      <path id="Tracé_28" data-name="Tracé 28" d="M720.013,456.623a.94.94,0,0,1,.938-.938h2.532a1.092,1.092,0,0,1,.938.938.939.939,0,0,1-.938.938h-2.54a.94.94,0,0,1-.938-.938Z" transform="translate(-671.777 -443.382)" fill="#273583"/>
      <path id="Tracé_29" data-name="Tracé 29" d="M735.064,474.14a.886.886,0,0,1,.831-.938.85.85,0,0,1,.107,0h2.531a1,1,0,0,1,.918.938.939.939,0,0,1-.938.938h-2.53a.94.94,0,0,1-.938-.938Z" transform="translate(-678.284 -450.96)" fill="#273583"/>
      <path id="Tracé_30" data-name="Tracé 30" d="M720.024,474.14a.886.886,0,0,1,.831-.938.85.85,0,0,1,.107,0h2.531a1.092,1.092,0,0,1,.938.938.939.939,0,0,1-.938.938h-2.551a.94.94,0,0,1-.938-.938Z" transform="translate(-671.777 -450.96)" fill="#273583"/>
      <path id="Tracé_31" data-name="Tracé 31" d="M691,491.989a.886.886,0,0,1,.831-.938.849.849,0,0,1,.107,0h2.532a.938.938,0,0,1,0,1.875h-2.532A.94.94,0,0,1,691,491.989Z" transform="translate(-659.229 -458.682)" fill="#273583"/>
      <path id="Tracé_32" data-name="Tracé 32" d="M691,509.5a.886.886,0,0,1,.831-.938.849.849,0,0,1,.107,0h2.532a.938.938,0,0,1,0,1.875h-2.532A.94.94,0,0,1,691,509.5Z" transform="translate(-659.229 -466.26)" fill="#273583"/>
      <g id="Groupe_80" data-name="Groupe 80" transform="translate(43.686 28.368)">
        <path id="Tracé_33" data-name="Tracé 33" d="M732.26,494.133a10.1,10.1,0,0,0-1.294-4.959c-.091-.159-.187-.323-.3-.482a10.115,10.115,0,0,0-17.094.028,9.419,9.419,0,0,0-.772,1.458c0,.006-.006.006-.006.011a10.114,10.114,0,0,0-.8,3.943c0,.2.006.4.017.6-.006.091-.011.182-.011.278l.136,27.67a2.122,2.122,0,0,0,1.362,2.054,1.769,1.769,0,0,0,.635.113,1.892,1.892,0,0,0,1.441-.7l6.706-8.017,6.536,7.812a1.841,1.841,0,0,0,2.082.6,2.14,2.14,0,0,0,1.356-2.065V495a2.525,2.525,0,0,0-.017-.3C732.254,494.507,732.26,494.32,732.26,494.133Zm-10.127-8.17a8.183,8.183,0,0,1,8.17,8.17,1.756,1.756,0,0,1-.011.244,2.683,2.683,0,0,1-.017.3,8.18,8.18,0,0,1-8.142,7.625,8.242,8.242,0,0,1-3.041-.59c-.119-.045-.227-.1-.346-.153a7.58,7.58,0,0,1-.675-.346c-.216-.125-.431-.261-.635-.4a7.784,7.784,0,0,1-1.14-.976q-.136-.136-.255-.272a5.888,5.888,0,0,1-.42-.511,8.317,8.317,0,0,1-.635-.965c-.068-.125-.142-.255-.2-.386a6.232,6.232,0,0,1-.34-.806,7.611,7.611,0,0,1-.255-.845c-.006-.006,0-.006,0-.006a6.492,6.492,0,0,1-.159-.879c-.011-.079-.017-.159-.023-.233s-.017-.119-.023-.182v-.045l-.006-.051c0-.034-.006-.062-.006-.091-.006-.142-.011-.289-.011-.431A8.179,8.179,0,0,1,722.133,485.963Zm8.17,36.509a.453.453,0,0,1-.028.148l-6.53-7.8a1.888,1.888,0,0,0-1.458-.709h-.011a1.867,1.867,0,0,0-1.447.709l-6.695,8.005a.35.35,0,0,1-.028-.153l-.114-22.518c.2.261.4.516.618.749.1.1.187.2.284.3a9.106,9.106,0,0,0,.687.641c.153.13.3.25.459.363a9.929,9.929,0,0,0,1.912,1.146l.357.153c.125.057.255.1.386.148l.329.119a10.581,10.581,0,0,0,1.2.306c.085.017.17.034.255.045.114.017.221.04.34.051.057.006.113.017.17.023.147.017.306.028.465.04.227.017.448.023.681.023s.477-.006.709-.023c.136-.011.278-.023.414-.04.079-.006.153-.017.238-.028s.153-.017.227-.034c.113-.017.233-.04.357-.062a8.814,8.814,0,0,0,.925-.233c.119-.028.238-.068.357-.108.062-.023.125-.045.182-.068a3.109,3.109,0,0,0,.3-.108,9.335,9.335,0,0,0,.965-.448c.164-.085.329-.17.488-.267s.329-.2.494-.312.323-.221.471-.34.306-.233.46-.369c.142-.119.284-.25.431-.391s.278-.272.409-.414.261-.289.386-.443.244-.3.363-.454Z" transform="translate(-712 -484)" fill="#273583"/>
      </g>
    </g>
  </g>
</svg>
