<svg xmlns="http://www.w3.org/2000/svg" width="79.553" height="70.162" viewBox="0 0 79.553 70.162">
  <g id="Groupe_88" data-name="Groupe 88" transform="translate(-780.001 -855.115)">
    <path id="Tracé_34" data-name="Tracé 34" d="M938.495,465.528v50.224a.956.956,0,0,1-.924.98H910.539v.838a3.444,3.444,0,0,1-3.271,3.525h-4.805a3.391,3.391,0,0,1-3.256-3.525v-.838H872.15a.954.954,0,0,1-.894-1.006v-50.2a.268.268,0,0,1,0-.091.878.878,0,0,1,.924-.833h5.455V461.5a.933.933,0,0,1,.838-1.005c11.667-.838,21.236,1.341,26.356,6.044,5.12-4.7,14.694-6.883,26.362-6.044a.993.993,0,0,1,.838,1.005v3.022h5.46A1.163,1.163,0,0,1,938.495,465.528Z" transform="translate(-78.941 404.181)" fill="#4dc3f7"/>
    <path id="_PREMIUM_Bookstore" data-name=" PREMIUM Bookstore" d="M926.7,449.166h-6.3v-3.488a1.151,1.151,0,0,0-.97-1.162c-13.466-.969-24.511,1.55-30.421,6.976-5.909-5.426-16.954-7.945-30.42-6.976a1.086,1.086,0,0,0-.969,1.162v3.585h-6.3a1.017,1.017,0,0,0-1.066.965.957.957,0,0,0,0,.1v57.935a1.1,1.1,0,0,0,1.035,1.161h31.227v.969a3.915,3.915,0,0,0,3.755,4.068h5.546a3.978,3.978,0,0,0,3.778-4.069v-.969h31.2a1.1,1.1,0,0,0,1.068-1.131l0-.031V450.328A1.336,1.336,0,0,0,926.7,449.166Zm-36.623,4.36c5.232-5.038,15.5-7.557,28.192-6.782v52.993a45.14,45.14,0,0,0-28.192,6.491Zm-30.321-6.782c12.691-.775,22.961,1.647,28.289,6.782v52.7a46.733,46.733,0,0,0-23.834-6.782,33.41,33.41,0,0,0-4.455.293ZM925.629,507.1h-31.1a1.164,1.164,0,0,0-1.066,1.162v2.131a1.718,1.718,0,0,1-1.647,1.744H886.3a1.719,1.719,0,0,1-1.647-1.744v-2.035a1.1,1.1,0,0,0-1.035-1.161l-.031,0h-31.2V451.491h5.231V500.9a1.231,1.231,0,0,0,.388.872,1.561,1.561,0,0,0,.872.293c11.045-1.744,23.445,2.422,29.549,7.169a1.371,1.371,0,0,0,.581.194,4.117,4.117,0,0,0,.484-.1c6.1-4.748,18.5-8.91,29.549-7.169a1.35,1.35,0,0,0,.872-.293A1.05,1.05,0,0,0,920.3,501V451.491h5.329Zm-10.366-17.826a1.163,1.163,0,0,1-1.066,1.162c-8.041,0-14.629,1.453-19.473,4.263a.867.867,0,0,1-.484.1,1.065,1.065,0,0,1-.969-.582,1.129,1.129,0,0,1,.45-1.532l.034-.018c5.135-3,12.013-4.554,20.442-4.554h0c.581,0,.969.484,1.066,1.162Zm0-11.141A1.163,1.163,0,0,1,914.2,479.3c-8.041,0-14.629,1.453-19.473,4.263a.867.867,0,0,1-.484.1,1.065,1.065,0,0,1-.969-.582,1.129,1.129,0,0,1,.45-1.532l.034-.018c5.231-3,12.11-4.455,20.442-4.554h0c.581,0,.969.581,1.066,1.162Zm-21.992-6.2a1.129,1.129,0,0,1,.45-1.532l.034-.018c5.231-3,12.11-4.455,20.442-4.554a1.1,1.1,0,0,1,1.068,1.131l0,.031a1.163,1.163,0,0,1-1.066,1.162c-8.041,0-14.629,1.453-19.473,4.263a.867.867,0,0,1-.484.1.972.972,0,0,1-.969-.581Zm0-11.141a1.129,1.129,0,0,1,.45-1.532l.034-.018c5.231-3,12.11-4.455,20.442-4.554h0a1.1,1.1,0,0,1,1.068,1.131l0,.031a1.163,1.163,0,0,1-1.066,1.162c-8.041,0-14.629,1.453-19.473,4.263a.867.867,0,0,1-.484.1.972.972,0,0,1-.969-.581ZM883.389,494.6c-4.941-2.81-11.529-4.263-19.473-4.263a1.1,1.1,0,0,1-1.067-1.131v-.031a1.24,1.24,0,0,1,1.064-1.162c8.332,0,15.307,1.55,20.442,4.554a1.334,1.334,0,0,1,.485,1.549,1.065,1.065,0,0,1-.969.582.426.426,0,0,1-.484-.1Zm-20.634-16.472a1.164,1.164,0,0,1,1.065-1.161h0c8.332,0,15.307,1.55,20.442,4.554a1.334,1.334,0,0,1,.484,1.55,1.065,1.065,0,0,1-.969.582.87.87,0,0,1-.484-.1c-4.941-2.81-11.529-4.263-19.473-4.263a1.238,1.238,0,0,1-1.066-1.162Zm0-11.141a1.163,1.163,0,0,1,1.065-1.158c8.332,0,15.307,1.55,20.442,4.554a1.334,1.334,0,0,1,.484,1.55,1.065,1.065,0,0,1-.969.581.869.869,0,0,1-.484-.1c-4.941-2.81-11.529-4.263-19.473-4.263a1.1,1.1,0,0,1-1.067-1.131v-.036Zm0-11.141a1.164,1.164,0,0,1,1.066-1.162h0c8.332,0,15.307,1.55,20.442,4.554a1.334,1.334,0,0,1,.484,1.55,1.065,1.065,0,0,1-.969.582.869.869,0,0,1-.484-.1c-4.941-2.81-11.529-4.263-19.473-4.263a1.1,1.1,0,0,1-1.067-1.131v-.031Z" transform="translate(-70.252 410.803)" fill="#273583"/>
  </g>
</svg>
