<svg xmlns="http://www.w3.org/2000/svg" width="88.402" height="75.214" viewBox="0 0 88.402 75.214">
  <g id="Groupe_86" data-name="Groupe 86" transform="translate(-421.944 -851.346)">
    <rect id="Rectangle_75" data-name="Rectangle 75" width="82.658" height="55.105" rx="12.71" transform="translate(427.687 863.496)" fill="#4dc3f7"/>
    <rect id="Rectangle_76" data-name="Rectangle 76" width="41.635" height="3.674" rx="1.837" transform="translate(445.443 922.887)" fill="#4dc3f7"/>
    <ellipse id="Ellipse_13" data-name="Ellipse 13" cx="9.797" cy="9.797" rx="9.797" ry="9.797" transform="translate(439.933 855.536)" fill="#4dc3f7"/>
    <path id="Live_Treatment_Demonstration" data-name="Live Treatment Demonstration" d="M494.186,443.564H457.959a.957.957,0,0,0-1.012.9.915.915,0,0,0,0,.116.956.956,0,0,0,.9,1.012.9.9,0,0,0,.116,0h36.125a5.4,5.4,0,0,1,5.363,5.363v38.857h-76.8V450.951a5.4,5.4,0,0,1,5.363-5.363.955.955,0,0,0,1.012-.9.925.925,0,0,0,0-.116.956.956,0,0,0-.9-1.012.925.925,0,0,0-.116,0,7.429,7.429,0,0,0-7.387,7.387v42.8a7.428,7.428,0,0,0,7.387,7.387h19.732v8.3h-5.97a1.012,1.012,0,0,0,0,2.024h38.149a1.012,1.012,0,0,0,0-2.024H473.95v-8.3h20.137a7.427,7.427,0,0,0,7.385-7.387v-42.8a7.277,7.277,0,0,0-7.167-7.386Zm-44.321,65.875v-8.095h22.059v8.095Zm44.321-10.321H428.007a5.4,5.4,0,0,1-5.364-5.364v-1.923h76.9v1.923A5.4,5.4,0,0,1,494.186,499.118Zm-65.774-39.465a4.77,4.77,0,0,0,.2,2.024,5.693,5.693,0,0,0,2.53,3.541,10.827,10.827,0,0,0,.91,4.352,13.968,13.968,0,0,0,3.643,4.96,21.645,21.645,0,0,0,3.946,2.834,6.212,6.212,0,0,0,6.476,0,22.191,22.191,0,0,0,3.339-2.327c.2-.1.2-.2.306-.2l.306-.306.1-.2a.969.969,0,0,0-1.319-1.421,1.075,1.075,0,0,0-.1.105l-.306.4h0a12.062,12.062,0,0,1-2.935,2.125l-.4.2a4.3,4.3,0,0,1-3.845.306,5.447,5.447,0,0,1-1.315-.708l-.1-.1A18.487,18.487,0,0,1,435.7,471.7a9.967,9.967,0,0,1-2.53-6.98,1.113,1.113,0,0,0-.607-1.012,3.63,3.63,0,0,1-1.012-.708,4.46,4.46,0,0,1-1.113-2.53v-.506c0-.1,0-.1.1-.1a.315.315,0,0,1,.2.1,1.03,1.03,0,0,0,.809.506.918.918,0,0,0,.809-.4,16.5,16.5,0,0,1,1.822-2.024,9.346,9.346,0,0,1,3.845-2.226,27.287,27.287,0,0,0,4.145-1.624,11.644,11.644,0,0,0,3.541-2.428,7.2,7.2,0,0,0,1.923,2.024,25.051,25.051,0,0,0,3.137,1.822,6.162,6.162,0,0,1,1.619,1.214,4.7,4.7,0,0,1,1.014,2.733,1.08,1.08,0,0,0,.706.91,1.2,1.2,0,0,0,1.113-.4c.1-.1.1-.1.2-.1s.1,0,.1.2a4.9,4.9,0,0,1-.1,1.214,3.7,3.7,0,0,1-2.024,2.53,1.017,1.017,0,0,0-.607,1.012v.506a2.256,2.256,0,0,1-.1.708l-.306.91c0,.1-.1.306-.1.4a1.177,1.177,0,0,0,.2,1.012.816.816,0,0,0,.911.306c.2-.1.607-.2.708-.708v-.1a7.024,7.024,0,0,0,.506-2.53,5.77,5.77,0,0,0,1.417-1.315,5.685,5.685,0,0,0,1.214-4.048,1.971,1.971,0,0,0-1.619-2.024,18.591,18.591,0,0,0,.4-4.149,14.849,14.849,0,0,0-1.214-5.262,11.327,11.327,0,0,0-2.222-3.341,13.308,13.308,0,0,0-3.238-2.327,4.123,4.123,0,0,0-.506-1.822,5.288,5.288,0,0,0-2.327-2.125,8.6,8.6,0,0,0-6.172-.506,6.469,6.469,0,0,0-3.14,1.82,3.925,3.925,0,0,0-1.012,2.633,10.117,10.117,0,0,0-1.923,1.214,10.546,10.546,0,0,0-3.137,3.845,15.842,15.842,0,0,0-1.417,4.857,13.558,13.558,0,0,0,.306,4.96A1.936,1.936,0,0,0,428.412,459.653Zm14.47-18.417a17.046,17.046,0,0,0-4.453.708,4.092,4.092,0,0,1,3.238-1.822,4.933,4.933,0,0,1,1.214-.1,7.051,7.051,0,0,1,2.53.506,4.392,4.392,0,0,1,1.72,1.216l.1.1A16.693,16.693,0,0,0,442.882,441.237Zm3.845,2.53a13.308,13.308,0,0,1,4.453,2.633A8.643,8.643,0,0,1,453,449.032a12.159,12.159,0,0,1,1.111,4.752,14.846,14.846,0,0,1-.1,2.125,6.186,6.186,0,0,0-2.428-2.125l-.2-.1a15.067,15.067,0,0,1-2.427-1.417,7.916,7.916,0,0,1-1.619-1.518,2.747,2.747,0,0,1-.607-1.72c-.1-.607-.506-1.012-1.012-.91a.893.893,0,0,0-.91.809c0,.607-.306,1.012-1.012,1.619a10.627,10.627,0,0,1-2.429,1.518,30.537,30.537,0,0,1-4.048,1.619,11.921,11.921,0,0,0-4.25,2.428,12.161,12.161,0,0,0-1.214,1.114,4.3,4.3,0,0,1-.2-1.113,14.4,14.4,0,0,1,.607-5.869l.1-.306a9.462,9.462,0,0,1,2.125-3.541,12.751,12.751,0,0,1,6.78-3.238A12.513,12.513,0,0,1,446.727,443.767Zm17.911,35.318-.809-.812-5.059-5.059-1.315-1.315-1.315-1.315a2.108,2.108,0,0,0-2.024-.506l-.506-.306c-.4-.2-.91-.506-1.315-.708a.947.947,0,0,0-.91,0l-.2-.2-1.721-1.72a.674.674,0,0,0-.708-.2c-.306.1-.4.306-.506.607,0,.2,0,.506.2.607l1.822,1.822a.612.612,0,0,0,0,.809c.306.607.607,1.214,1.012,1.923a2.109,2.109,0,0,0,.5,2.026l2.428,2.428,2.531,2.53.2.2,3.339,3.339c-.2.1-.306.306-.506.506a.716.716,0,0,0,1,1.029l.016-.017.1-.1.607-.607,1.518-1.518,1.619,1.619-.914.91a.674.674,0,0,0-.061.951.76.76,0,0,0,1.073.061l2.732-2.732a.771.771,0,0,0,.2-.506c0-.2-.1-.306-.1-.4l.1-.1-.4-.1a.635.635,0,0,0-.809.2l-.809.809-1.617-1.62,2.125-2.125a.717.717,0,1,0-1.012-1.015h0A3.2,3.2,0,0,1,464.638,479.084ZM452.9,473.819a.57.57,0,0,1-.113-.8.583.583,0,0,1,.113-.113l.91-.91.4-.4a.772.772,0,0,1,.4-.2c.2,0,.306.1.506.2l.1.1-.1.1a4.617,4.617,0,0,1-.708.71.716.716,0,0,0,1.012,1.012l.809-.809,1.315,1.315a2.675,2.675,0,0,1-.607.506l-.2.2a.716.716,0,0,0,1,1.029l.016-.017.2-.2.506-.506,1.315,1.315-.506.506-.2.1a.674.674,0,0,0-.061.951.707.707,0,0,0,.061.061.735.735,0,0,0,1.012,0l.2-.2.607-.607,1.315,1.313-.607.607-.2.2a.765.765,0,0,0-.306.809.831.831,0,0,0,.506.506,1.091,1.091,0,0,0,.708-.2l.2-.2.607-.607.506.506-2.225,2.23Zm-.91-3.339c.306.2.607.306.91.506l-.607.607c-.2-.306-.306-.607-.506-.91.1-.1.1-.2.2-.2ZM481.236,455.5H468.99a3.735,3.735,0,0,0-3.745,3.725v8.823a3.735,3.735,0,0,0,3.724,3.746h12.267a3.735,3.735,0,0,0,3.744-3.726v-.119l5.464,1.113h.2a.771.771,0,0,0,.506-.2.873.873,0,0,0,.306-.607v-9.108a.721.721,0,0,0-.306-.607.855.855,0,0,0-.708-.2l-5.464,1.113v-.1a3.758,3.758,0,0,0-3.671-3.844Zm2.125,12.548a2.075,2.075,0,0,1-2.024,2.125c-.034,0-.067,0-.1,0H468.99a2.075,2.075,0,0,1-2.125-2.024c0-.034,0-.067,0-.1v-8.806a2.076,2.076,0,0,1,2.026-2.123h12.345a2.075,2.075,0,0,1,2.125,2.024c0,.034,0,.068,0,.1Zm6.476-7.994v7.083l-4.857-.91v-5.263Zm-12.45,3.744-3.845,2.428a.6.6,0,0,1-.91-.506v-4.96a.634.634,0,0,1,.692-.568.645.645,0,0,1,.219.062l3.845,2.428a.785.785,0,0,1,0,1.11Z" transform="translate(1.324 413.189)" fill="#273583"/>
  </g>
</svg>
