<svg xmlns="http://www.w3.org/2000/svg" width="17.738" height="17.738" viewBox="0 0 17.738 17.738">
  <path id="Icon_awesome-linkedin-in" data-name="Icon awesome-linkedin-in" d="M3.97,17.738H.293V5.9H3.97ZM2.13,4.28a2.14,2.14,0,1,1,2.13-2.15A2.148,2.148,0,0,1,2.13,4.28Zm15.6,13.458h-3.67V11.973c0-1.374-.028-3.136-1.912-3.136-1.912,0-2.2,1.493-2.2,3.037v5.864H6.274V5.9H9.8V7.511h.051A3.864,3.864,0,0,1,13.332,5.6c3.722,0,4.406,2.451,4.406,5.634v6.505Z" transform="translate(0 -0.001)" fill="#fff"/>
</svg>
