<svg id="Layer_1-2" xmlns="http://www.w3.org/2000/svg" width="133.507" height="40.601" viewBox="0 0 133.507 40.601">
  <path id="Tracé_633" data-name="Tracé 633" d="M133.507,5.16V35.44a5.161,5.161,0,0,1-5.161,5.16H5.16A5.16,5.16,0,0,1,0,35.44V5.16A5.16,5.16,0,0,1,5.16,0H128.346a5.161,5.161,0,0,1,5.161,5.16Z" fill="#fff"/>
  <g id="Groupe_1780" data-name="Groupe 1780" transform="translate(12.977 7.172)">
    <g id="Groupe_1776" data-name="Groupe 1776">
      <path id="Tracé_634" data-name="Tracé 634" d="M147.417,152.7c-2.166,3.758-.789,9.462,1.606,12.92,1.2,1.729,2.406,3.281,4.063,3.281.031,0,.062,0,.095,0a5.01,5.01,0,0,0,1.886-.5,5.162,5.162,0,0,1,2.235-.529,4.694,4.694,0,0,1,2.127.512,4.5,4.5,0,0,0,2.037.489c1.868-.035,3.014-1.71,4.025-3.187a14.108,14.108,0,0,0,1.764-3.613l.007-.023a.21.21,0,0,0-.112-.257l-.015-.006a5.353,5.353,0,0,1-3.244-4.9,5.508,5.508,0,0,1,2.6-4.606l.02-.013a.21.21,0,0,0,.059-.3,6.057,6.057,0,0,0-4.766-2.588c-.135-.013-.275-.02-.415-.02a8.312,8.312,0,0,0-2.991.747,4.818,4.818,0,0,1-1.432.428,4.7,4.7,0,0,1-1.482-.433,7.181,7.181,0,0,0-2.612-.663h-.067a6.406,6.406,0,0,0-5.392,3.263Z" transform="translate(-146.337 -143.287)"/>
      <path id="Tracé_635" data-name="Tracé 635" d="M266.543,80.878a5.848,5.848,0,0,0-3.861,1.981,5.479,5.479,0,0,0-1.388,4.063.211.211,0,0,0,.192.182q.134.011.271.011a4.948,4.948,0,0,0,3.645-1.869,5.777,5.777,0,0,0,1.358-4.18A.212.212,0,0,0,266.543,80.878Z" transform="translate(-251.07 -80.878)"/>
    </g>
    <g id="Groupe_1779" data-name="Groupe 1779" transform="translate(28.852 0.428)">
      <g id="Groupe_1777" data-name="Groupe 1777" transform="translate(1.855)">
        <path id="Tracé_636" data-name="Tracé 636" d="M492.61,89.99h2.51a3.671,3.671,0,0,1,1.754.408,2.98,2.98,0,0,1,1.192,1.129,3.357,3.357,0,0,1,0,3.272,2.972,2.972,0,0,1-1.192,1.128,3.671,3.671,0,0,1-1.754.408h-2.51Zm2.474,5.928a3.306,3.306,0,0,0,1.55-.349,2.493,2.493,0,0,0,1.033-.975,3.009,3.009,0,0,0,0-2.864,2.5,2.5,0,0,0-1.033-.975,3.314,3.314,0,0,0-1.55-.348h-2.012v5.51h2.012Z" transform="translate(-492.61 -89.61)"/>
        <path id="Tracé_637" data-name="Tracé 637" d="M570.726,112.266a2.229,2.229,0,0,1-.848-.857,2.634,2.634,0,0,1,0-2.474,2.223,2.223,0,0,1,.848-.857,2.528,2.528,0,0,1,2.421,0,2.229,2.229,0,0,1,.848.857,2.634,2.634,0,0,1,0,2.474,2.223,2.223,0,0,1-.848.857,2.528,2.528,0,0,1-2.421,0Zm2.184-.354a1.824,1.824,0,0,0,.68-.707,2.267,2.267,0,0,0,0-2.066,1.824,1.824,0,0,0-.68-.707,2,2,0,0,0-1.949,0,1.829,1.829,0,0,0-.68.707,2.266,2.266,0,0,0,0,2.066,1.811,1.811,0,0,0,.68.707,2,2,0,0,0,1.949,0Z" transform="translate(-562.745 -105.813)"/>
        <path id="Tracé_638" data-name="Tracé 638" d="M635.062,108.18l-1.795,4.731h-.426l-1.6-4.106-1.6,4.106h-.417l-1.795-4.731h.435l1.577,4.224,1.613-4.224h.39l1.6,4.215,1.6-4.215Z" transform="translate(-615.474 -106.187)"/>
        <path id="Tracé_639" data-name="Tracé 639" d="M729.057,108.278a2.013,2.013,0,0,1,.517,1.486v2.764h-.453V109.8a1.681,1.681,0,0,0-.4-1.215,1.5,1.5,0,0,0-1.129-.417,1.742,1.742,0,0,0-1.314.5,1.853,1.853,0,0,0-.481,1.342v2.519h-.453V107.8h.435v1.024a1.8,1.8,0,0,1,.73-.779,2.249,2.249,0,0,1,1.147-.281,1.9,1.9,0,0,1,1.4.517Z" transform="translate(-704.702 -105.804)"/>
        <path id="Tracé_640" data-name="Tracé 640" d="M794.13,85.7h.453v6.725h-.453Z" transform="translate(-767.392 -85.7)"/>
        <path id="Tracé_641" data-name="Tracé 641" d="M816.126,112.266a2.222,2.222,0,0,1-.848-.857,2.633,2.633,0,0,1,0-2.474,2.223,2.223,0,0,1,.848-.857,2.527,2.527,0,0,1,2.42,0,2.229,2.229,0,0,1,.848.857,2.64,2.64,0,0,1,0,2.474,2.223,2.223,0,0,1-.848.857,2.526,2.526,0,0,1-2.42,0Zm2.184-.354a1.824,1.824,0,0,0,.68-.707,2.267,2.267,0,0,0,0-2.066,1.824,1.824,0,0,0-.68-.707,2,2,0,0,0-1.949,0,1.83,1.83,0,0,0-.68.707,2.266,2.266,0,0,0,0,2.066,1.811,1.811,0,0,0,.68.707,2,2,0,0,0,1.949,0Z" transform="translate(-786.384 -105.813)"/>
        <path id="Tracé_642" data-name="Tracé 642" d="M882.542,108.228a1.737,1.737,0,0,1,.471,1.319v3h-.435V111.7a1.576,1.576,0,0,1-.662.648,2.191,2.191,0,0,1-1.042.231,1.922,1.922,0,0,1-1.246-.372,1.285,1.285,0,0,1-.036-1.935,2.025,2.025,0,0,1,1.346-.367h1.623v-.38a1.336,1.336,0,0,0-.358-1.007,1.453,1.453,0,0,0-1.047-.344,2.52,2.52,0,0,0-.9.163,2.259,2.259,0,0,0-.73.435l-.227-.326a2.528,2.528,0,0,1,.852-.494,3.1,3.1,0,0,1,1.042-.176,1.884,1.884,0,0,1,1.351.449Zm-.6,3.712a1.654,1.654,0,0,0,.621-.788v-.889h-1.613a1.6,1.6,0,0,0-1.011.254.85.85,0,0,0-.313.7.889.889,0,0,0,.344.73,1.549,1.549,0,0,0,.97.268,1.774,1.774,0,0,0,1-.272Z" transform="translate(-844.891 -105.822)"/>
        <path id="Tracé_643" data-name="Tracé 643" d="M942.561,85.7v6.725h-.444V91.311a2.032,2.032,0,0,1-.788.852,2.223,2.223,0,0,1-1.151.3,2.381,2.381,0,0,1-1.2-.309,2.2,2.2,0,0,1-.838-.852,2.7,2.7,0,0,1,0-2.487,2.169,2.169,0,0,1,.838-.852,2.382,2.382,0,0,1,1.2-.3,2.128,2.128,0,0,1,1.931,1.132V85.7Zm-1.383,6.1a1.824,1.824,0,0,0,.68-.707,2.266,2.266,0,0,0,0-2.066,1.824,1.824,0,0,0-.68-.707,2,2,0,0,0-1.949,0,1.83,1.83,0,0,0-.68.707,2.266,2.266,0,0,0,0,2.066,1.811,1.811,0,0,0,.68.707,2,2,0,0,0,1.949,0Z" transform="translate(-898.358 -85.7)"/>
        <path id="Tracé_644" data-name="Tracé 644" d="M1034.236,112.266a2.229,2.229,0,0,1-.848-.857,2.634,2.634,0,0,1,0-2.474,2.222,2.222,0,0,1,.848-.857,2.527,2.527,0,0,1,2.42,0,2.23,2.23,0,0,1,.848.857,2.641,2.641,0,0,1,0,2.474,2.224,2.224,0,0,1-.848.857,2.526,2.526,0,0,1-2.42,0Zm2.184-.354a1.823,1.823,0,0,0,.68-.707,2.266,2.266,0,0,0,0-2.066,1.823,1.823,0,0,0-.68-.707,2,2,0,0,0-1.949,0,1.83,1.83,0,0,0-.68.707,2.267,2.267,0,0,0,0,2.066,1.812,1.812,0,0,0,.68.707,2,2,0,0,0,1.949,0Z" transform="translate(-985.152 -105.813)"/>
        <path id="Tracé_645" data-name="Tracé 645" d="M1106,108.278a2.013,2.013,0,0,1,.517,1.486v2.764h-.453V109.8a1.681,1.681,0,0,0-.4-1.215,1.5,1.5,0,0,0-1.129-.417,1.742,1.742,0,0,0-1.314.5,1.853,1.853,0,0,0-.481,1.342v2.519h-.453V107.8h.435v1.024a1.8,1.8,0,0,1,.73-.779,2.249,2.249,0,0,1,1.147-.281,1.9,1.9,0,0,1,1.4.517Z" transform="translate(-1048.215 -105.804)"/>
        <path id="Tracé_646" data-name="Tracé 646" d="M1191.677,102a1.139,1.139,0,0,1-.431.249,1.686,1.686,0,0,1-.539.086,1.278,1.278,0,0,1-.952-.34,1.291,1.291,0,0,1-.335-.947v-3.09h-.87v-.389h.87V96.54h.453v1.033h1.5v.389h-1.5v3.045a1,1,0,0,0,.222.7.85.85,0,0,0,.657.24,1.065,1.065,0,0,0,.734-.262l.191.317Z" transform="translate(-1126.835 -95.579)"/>
        <path id="Tracé_647" data-name="Tracé 647" d="M1241.727,88.174a2.013,2.013,0,0,1,.517,1.486v2.764h-.453V89.7a1.681,1.681,0,0,0-.4-1.215,1.5,1.5,0,0,0-1.129-.417,1.741,1.741,0,0,0-1.314.5,1.853,1.853,0,0,0-.481,1.342v2.519h-.453V85.7h.453v2.982a1.733,1.733,0,0,1,.725-.756,2.294,2.294,0,0,1,1.133-.268,1.9,1.9,0,0,1,1.4.517Z" transform="translate(-1171.909 -85.7)"/>
        <path id="Tracé_648" data-name="Tracé 648" d="M1305.585,110.281h-4.069a1.977,1.977,0,0,0,.281.983,1.8,1.8,0,0,0,.711.666,2.141,2.141,0,0,0,1.011.236,2.171,2.171,0,0,0,.857-.168,1.674,1.674,0,0,0,.657-.494l.262.3a2.016,2.016,0,0,1-.775.571,2.7,2.7,0,0,1-2.271-.109,2.233,2.233,0,0,1-.866-.852,2.447,2.447,0,0,1-.313-1.242,2.558,2.558,0,0,1,.294-1.237,2.17,2.17,0,0,1,.811-.857,2.343,2.343,0,0,1,2.315-.005,2.162,2.162,0,0,1,.807.848,2.551,2.551,0,0,1,.294,1.233l-.009.127Zm-3.145-1.89a1.7,1.7,0,0,0-.639.625,2.03,2.03,0,0,0-.277.911h3.625a1.894,1.894,0,0,0-.272-.906,1.768,1.768,0,0,0-.644-.625,1.788,1.788,0,0,0-.9-.227,1.822,1.822,0,0,0-.9.222Z" transform="translate(-1229.377 -105.813)"/>
      </g>
      <g id="Groupe_1778" data-name="Groupe 1778" transform="translate(0 12.262)">
        <path id="Tracé_649" data-name="Tracé 649" d="M480.255,234.063h-5.421l-1.069,2.51H471.69l4.879-10.843h1.983l4.894,10.843H481.34Zm-.666-1.58-2.045-4.74-2.029,4.74Z" transform="translate(-471.69 -225.574)"/>
        <path id="Tracé_650" data-name="Tracé 650" d="M624.456,254.207a3.8,3.8,0,0,1,1.5,1.487,4.814,4.814,0,0,1,0,4.437,3.783,3.783,0,0,1-1.5,1.5,4.389,4.389,0,0,1-2.161.527,3.338,3.338,0,0,1-2.649-1.116v4.012H617.71V253.773h1.844v1.085a3,3,0,0,1,1.185-.883,4.005,4.005,0,0,1,1.556-.294A4.394,4.394,0,0,1,624.456,254.207Zm-.62,5.576a2.894,2.894,0,0,0,0-3.748,2.342,2.342,0,0,0-1.758-.712,2.5,2.5,0,0,0-1.255.317,2.3,2.3,0,0,0-.883.906,3.016,3.016,0,0,0,0,2.726,2.292,2.292,0,0,0,.883.906,2.487,2.487,0,0,0,1.255.317,2.342,2.342,0,0,0,1.758-.712Z" transform="translate(-604.761 -251.045)"/>
        <path id="Tracé_651" data-name="Tracé 651" d="M744.276,254.207a3.8,3.8,0,0,1,1.5,1.487,4.814,4.814,0,0,1,0,4.437,3.783,3.783,0,0,1-1.5,1.5,4.389,4.389,0,0,1-2.161.527,3.338,3.338,0,0,1-2.649-1.116v4.012H737.53V253.773h1.844v1.085a3,3,0,0,1,1.185-.883,4.005,4.005,0,0,1,1.556-.294A4.394,4.394,0,0,1,744.276,254.207Zm-.62,5.576a2.893,2.893,0,0,0,0-3.748,2.342,2.342,0,0,0-1.758-.712,2.5,2.5,0,0,0-1.255.317,2.3,2.3,0,0,0-.883.906,3.017,3.017,0,0,0,0,2.726,2.292,2.292,0,0,0,.883.906,2.487,2.487,0,0,0,1.255.317,2.341,2.341,0,0,0,1.758-.712Z" transform="translate(-713.956 -251.045)"/>
        <path id="Tracé_652" data-name="Tracé 652" d="M899.2,234.768a5.064,5.064,0,0,1-1.851-.944l.7-1.564a5.484,5.484,0,0,0,1.634.859,5.927,5.927,0,0,0,1.944.333,3.354,3.354,0,0,0,1.8-.388,1.173,1.173,0,0,0,.6-1.022.989.989,0,0,0-.333-.767,2.358,2.358,0,0,0-.844-.473q-.511-.17-1.394-.388a16.056,16.056,0,0,1-2.006-.589,3.31,3.31,0,0,1-1.317-.921,2.485,2.485,0,0,1-.55-1.7,2.893,2.893,0,0,1,.488-1.634,3.3,3.3,0,0,1,1.471-1.17,5.962,5.962,0,0,1,2.409-.434,7.794,7.794,0,0,1,1.952.247,5.394,5.394,0,0,1,1.657.712l-.635,1.564a6.29,6.29,0,0,0-1.487-.635,5.56,5.56,0,0,0-1.5-.216,3.137,3.137,0,0,0-1.774.4,1.242,1.242,0,0,0-.581,1.069.965.965,0,0,0,.333.759,2.408,2.408,0,0,0,.844.465q.511.17,1.394.388a14.778,14.778,0,0,1,1.983.581,3.4,3.4,0,0,1,1.324.921,2.431,2.431,0,0,1,.55,1.672,2.855,2.855,0,0,1-.488,1.626,3.322,3.322,0,0,1-1.479,1.162,6.02,6.02,0,0,1-2.417.434,8.274,8.274,0,0,1-2.424-.356Z" transform="translate(-859.603 -223.97)"/>
        <path id="Tracé_653" data-name="Tracé 653" d="M1009.1,243.77a2.28,2.28,0,0,1-.828.419,3.727,3.727,0,0,1-1.03.139,2.924,2.924,0,0,1-2.106-.712,2.742,2.742,0,0,1-.743-2.076v-3.981h-1.363V236.01h1.363v-1.89h1.936v1.89h2.215v1.549h-2.215v3.935a1.3,1.3,0,0,0,.294.921,1.1,1.1,0,0,0,.852.317,1.7,1.7,0,0,0,1.084-.341l.542,1.379Z" transform="translate(-955.912 -233.22)"/>
        <path id="Tracé_654" data-name="Tracé 654" d="M1080.788,261.611a3.947,3.947,0,0,1-1.572-1.51,4.266,4.266,0,0,1-.566-2.192,4.215,4.215,0,0,1,.566-2.184,3.963,3.963,0,0,1,1.572-1.5,4.7,4.7,0,0,1,2.261-.542,4.762,4.762,0,0,1,2.277.542,3.971,3.971,0,0,1,1.572,1.5,4.224,4.224,0,0,1,.565,2.184,4.275,4.275,0,0,1-.565,2.192,3.948,3.948,0,0,1-1.572,1.51,4.722,4.722,0,0,1-2.277.542A4.668,4.668,0,0,1,1080.788,261.611Zm4.027-1.828a2.868,2.868,0,0,0,0-3.748,2.368,2.368,0,0,0-1.766-.712,2.342,2.342,0,0,0-1.758.712,2.893,2.893,0,0,0,0,3.748,2.338,2.338,0,0,0,1.758.712A2.368,2.368,0,0,0,1084.815,259.783Z" transform="translate(-1024.826 -251.045)"/>
        <path id="Tracé_655" data-name="Tracé 655" d="M1203.786,253.68v1.844a2.445,2.445,0,0,0-.45-.046,2.34,2.34,0,0,0-1.766.658,2.623,2.623,0,0,0-.635,1.9v4.012H1199v-8.271h1.844v1.208a3.227,3.227,0,0,1,2.943-1.3Z" transform="translate(-1134.503 -251.045)"/>
        <path id="Tracé_656" data-name="Tracé 656" d="M1271.356,258.528h-6.49a2.251,2.251,0,0,0,.89,1.448,2.919,2.919,0,0,0,1.789.535,3.017,3.017,0,0,0,2.246-.9l1.037,1.193a3.492,3.492,0,0,1-1.409,1.007,5.588,5.588,0,0,1-4.321-.2,3.9,3.9,0,0,1-1.6-1.51,4.558,4.558,0,0,1-.015-4.368,3.9,3.9,0,0,1,1.525-1.51,4.456,4.456,0,0,1,2.2-.542,4.313,4.313,0,0,1,2.161.535,3.792,3.792,0,0,1,1.487,1.5,4.553,4.553,0,0,1,.535,2.238c0,.134-.011.325-.031.573Zm-5.723-2.749a2.314,2.314,0,0,0-.782,1.464h4.693a2.285,2.285,0,0,0-.759-1.456,2.52,2.52,0,0,0-3.153-.008Z" transform="translate(-1192.764 -251.045)"/>
      </g>
    </g>
  </g>
</svg>
