<svg xmlns="http://www.w3.org/2000/svg" width="16.581" height="16.577" viewBox="0 0 16.581 16.577">
  <path id="Icon_awesome-instagram" data-name="Icon awesome-instagram" d="M8.287,6.276a4.25,4.25,0,1,0,4.25,4.25A4.243,4.243,0,0,0,8.287,6.276Zm0,7.013a2.763,2.763,0,1,1,2.763-2.763,2.768,2.768,0,0,1-2.763,2.763ZM13.7,6.1a.991.991,0,1,1-.991-.991A.989.989,0,0,1,13.7,6.1Zm2.815,1.006a4.906,4.906,0,0,0-1.339-3.473A4.938,4.938,0,0,0,11.7,2.3c-1.369-.078-5.471-.078-6.839,0A4.931,4.931,0,0,0,1.392,3.631,4.922,4.922,0,0,0,.053,7.1c-.078,1.369-.078,5.471,0,6.839a4.906,4.906,0,0,0,1.339,3.473,4.944,4.944,0,0,0,3.473,1.339c1.369.078,5.471.078,6.839,0a4.906,4.906,0,0,0,3.473-1.339,4.938,4.938,0,0,0,1.339-3.473c.078-1.369.078-5.467,0-6.836Zm-1.768,8.3a2.8,2.8,0,0,1-1.576,1.576c-1.091.433-3.681.333-4.886.333s-3.8.1-4.886-.333a2.8,2.8,0,0,1-1.576-1.576c-.433-1.091-.333-3.681-.333-4.886s-.1-3.8.333-4.886A2.8,2.8,0,0,1,3.4,4.064c1.091-.433,3.681-.333,4.886-.333s3.8-.1,4.886.333A2.8,2.8,0,0,1,14.749,5.64c.433,1.091.333,3.681.333,4.886S15.182,14.325,14.749,15.413Z" transform="translate(0.005 -2.238)" fill="#fff"/>
</svg>
