<svg xmlns="http://www.w3.org/2000/svg" width="120.034" height="68.186" viewBox="0 0 120.034 68.186">
  <g id="Groupe_87" data-name="Groupe 87" transform="translate(-214 -851.476)">
    <rect id="Rectangle_72" data-name="Rectangle 72" width="67.748" height="42.496" rx="3.844" transform="translate(249.722 870.39)" fill="#4dc3f7"/>
    <rect id="Rectangle_73" data-name="Rectangle 73" width="94.231" height="7.391" rx="1.891" transform="translate(235.556 912.271)" fill="#4dc3f7"/>
    <ellipse id="Ellipse_9" data-name="Ellipse 9" cx="9.854" cy="9.854" rx="9.854" ry="9.854" transform="translate(233.708 856.841)" fill="#4dc3f7"/>
    <ellipse id="Ellipse_10" data-name="Ellipse 10" cx="3.695" cy="3.695" rx="3.695" ry="3.695" transform="translate(218.927 891.33)" fill="#4dc3f7"/>
    <ellipse id="Ellipse_11" data-name="Ellipse 11" cx="3.695" cy="3.695" rx="3.695" ry="3.695" transform="translate(228.781 898.105)" fill="#4dc3f7"/>
    <ellipse id="Ellipse_12" data-name="Ellipse 12" cx="3.695" cy="3.695" rx="3.695" ry="3.695" transform="translate(227.549 885.172)" fill="#4dc3f7"/>
    <path id="Live_Feed" data-name="Live Feed" d="M109.511,437.747h-8.557a1.351,1.351,0,0,0,0,2.7h8.557a1.351,1.351,0,0,0,0-2.7Zm0,5.852h-8.557a1.351,1.351,0,1,0,0,2.7h8.557a1.351,1.351,0,1,0,0-2.7Zm35.109,18.6a4.2,4.2,0,0,0-4.2,4.187v.015a4.1,4.1,0,0,0,4,4.2q.1,0,.2,0a4.2,4.2,0,0,0,0-8.4Zm0,5.7a1.65,1.65,0,1,1,1.65-1.65A1.774,1.774,0,0,1,144.62,467.906Zm39.159-4.5a1.526,1.526,0,0,0-.75-1.2l-5.7-2.851h-.449c-.306,0-.451,0-.6.153a1.131,1.131,0,0,0-.6,1.049v5.7a1.263,1.263,0,0,0,.6,1.05,1.127,1.127,0,0,0,.75.153h.153a.553.553,0,0,0,.451-.153l5.7-2.852C183.63,464.454,183.779,464.005,183.779,463.4Zm-5.7.9v-1.351h.153V462.8l1.351.75ZM105.908,429.2a12.753,12.753,0,0,0,0,25.507,10.625,10.625,0,0,0,2.1-.153h.153V486.36a4.4,4.4,0,0,0,.305,1.351v.153h-4.808a1.344,1.344,0,0,0-1.351,1.338v2.863a4.393,4.393,0,0,0,.305,1.351l.153.153H86.7v2.55H201.034v-2.556h-15.9v-.153a4.134,4.134,0,0,0,.153-1.351v-2.848a1.344,1.344,0,0,0-1.338-1.351h-4.816v-.153a4.4,4.4,0,0,0,.305-1.351v-11.55h13.052a2.688,2.688,0,0,0,2.7-2.683V454.847a2.689,2.689,0,0,0-2.677-2.7H179.428v-5.852a4.193,4.193,0,0,0-4.186-4.2h-56.58v-.153A12.742,12.742,0,0,0,105.921,429.2Zm0,22.957a10.212,10.212,0,0,1-10.2-10.2h0a10.2,10.2,0,0,1,20.4-.249q0,.125,0,.249a4.149,4.149,0,0,1-.153,1.351,6.58,6.58,0,0,1-.153.75h0c0,.153-.153.451-.153.6-.153.306-.153.451-.305.75s-.153.451-.305.751v.153c0,.153-.153.306-.306.45a8.267,8.267,0,0,1-.9,1.2,2.172,2.172,0,0,0-.305,1.05l.451,3.15-2.25-1.351c-.153,0-.153-.153-.306-.153h-.6c-.153,0-.153,0-.306.153-.305.153-.45.305-.75.305h0c-.305.153-.6.153-.75.305h0A6.087,6.087,0,0,1,105.908,452.152Zm76.822,38.41v1.65c0,1.351-.451,1.65-.9,1.65H107.409c-1.049,0-2.25-.9-2.25-1.65v-1.65ZM192.782,454.7v17.41H166.675V454.7Zm-17.4-10.052a1.666,1.666,0,0,1,1.651,1.651v5.852h-10.2a2.689,2.689,0,0,0-2.706,2.672v17.288a2.689,2.689,0,0,0,2.677,2.7h10.228v11.552a1.666,1.666,0,0,1-1.651,1.651H112.362a1.666,1.666,0,0,1-1.651-1.651v-.6h0V453.652h.451l4.051,2.4c.153,0,.153.153.305.153h.75a.526.526,0,0,0,.305-.153,1.363,1.363,0,0,0,.6-1.2l-.9-5.252h0v-.153a6.063,6.063,0,0,0,.75-1.351c.153-.153.153-.306.305-.451a5.3,5.3,0,0,0,.6-1.351c0-.153.153-.305.153-.451l.153-.305c0-.153,0-.305.153-.305v-.153h56.989Zm-81.17,36.01a4.894,4.894,0,0,0,2.1.6,4.04,4.04,0,0,0,3.6-2.1,3.872,3.872,0,0,0,.451-3.151v-.153a4.393,4.393,0,0,0-1.951-2.4,4.886,4.886,0,0,0-2.1-.6,3.851,3.851,0,0,0-2.7,1.049h-.153L89.1,471.356V471.2c0-.306.153-.451.153-.75a1.351,1.351,0,0,0-.153-.75v-.153L93.452,467h.153a4.315,4.315,0,0,0,2.7,1.05,3.451,3.451,0,0,0,2.1-.6,4.185,4.185,0,0,0,1.5-5.7,4.041,4.041,0,0,0-3.6-2.1,3.452,3.452,0,0,0-2.1.6,4.145,4.145,0,0,0-1.951,4.352v.153l-4.35,2.555h-.153a5.232,5.232,0,0,0-2.55-.9,4.2,4.2,0,0,0,0,8.4,3.851,3.851,0,0,0,2.7-1.05h.153l4.352,2.55v.153A3.809,3.809,0,0,0,94.207,480.659Zm.75-4.352a1.575,1.575,0,0,1,1.351-.75,1.127,1.127,0,0,1,.75.153,2.212,2.212,0,0,1,.75.9c.153.305,0,.6,0,1.049h0l-.153.153a1.79,1.79,0,0,1-1.351.75,1.125,1.125,0,0,1-.75-.153,1.519,1.519,0,0,1-.624-2.055ZM94.8,463.7a1.378,1.378,0,0,1,.6-.9h0a1.357,1.357,0,0,1,.75-.153,1.575,1.575,0,0,1,1.351.75,1.519,1.519,0,0,1-.554,2.075l-.046.026a1.346,1.346,0,0,1-.75.153,1.575,1.575,0,0,1-1.351-.75,3.214,3.214,0,0,1,0-1.2Zm-9.6,8.556a1.65,1.65,0,1,1,1.65-1.65,1.9,1.9,0,0,1-1.647,1.647Z" transform="translate(133 422.28)" fill="#273583"/>
  </g>
</svg>
