<svg id="Layer_1-2" xmlns="http://www.w3.org/2000/svg" width="133.507" height="40.601" viewBox="0 0 133.507 40.601">
  <path id="Tracé_611" data-name="Tracé 611" d="M133.507,5.16V35.44a5.16,5.16,0,0,1-5.16,5.161H5.16A5.16,5.16,0,0,1,0,35.44V5.16A5.16,5.16,0,0,1,5.16,0H128.347a5.16,5.16,0,0,1,5.16,5.16Z" fill="#fff"/>
  <g id="Groupe_1772" data-name="Groupe 1772" transform="translate(7.478 6.831)">
    <path id="Tracé_612" data-name="Tracé 612" d="M267,192.915l-5.087-2.935-4.183,4.044,3.823,3.7L267,194.576a.96.96,0,0,0,0-1.661Z" transform="translate(-242.353 -179.964)" fill="#ffd109"/>
    <path id="Tracé_613" data-name="Tracé 613" d="M111.574,86.547l-5.6-3.231L93.71,77.03l13.855,13.393Z" transform="translate(-92.878 -77.03)" fill="#06ef79"/>
    <path id="Tracé_614" data-name="Tracé 614" d="M96,256.3l12.085-6.657,5.216-3.012-3.649-3.528Z" transform="translate(-94.965 -228.373)" fill="#f93646"/>
    <path id="Tracé_615" data-name="Tracé 615" d="M84.342,83.14l-.012,27.049,14-13.531Z" transform="translate(-84.33 -82.598)" fill="#05d5fb"/>
  </g>
  <g id="Groupe_1775" data-name="Groupe 1775" transform="translate(35.761 6.873)">
    <g id="Groupe_1773" data-name="Groupe 1773" transform="translate(0 11.839)">
      <path id="Tracé_616" data-name="Tracé 616" d="M411.262,221.808h1.862v4.224a5.931,5.931,0,0,1-1.907,1,7.311,7.311,0,0,1-2.24.349,6.046,6.046,0,0,1-2.922-.7,5.218,5.218,0,0,1-2.043-1.946,5.66,5.66,0,0,1,0-5.6,5.213,5.213,0,0,1,2.051-1.945,6.119,6.119,0,0,1,2.944-.7,6.428,6.428,0,0,1,2.422.439,4.752,4.752,0,0,1,1.831,1.287l-1.241,1.211a3.985,3.985,0,0,0-2.922-1.211,4.139,4.139,0,0,0-1.991.469,3.415,3.415,0,0,0-1.362,1.317,3.788,3.788,0,0,0-.492,1.938,3.678,3.678,0,0,0,.492,1.907,3.53,3.53,0,0,0,1.362,1.332,3.994,3.994,0,0,0,1.976.484,4.261,4.261,0,0,0,2.18-.545v-3.3Z" transform="translate(-403.27 -215.995)"/>
      <path id="Tracé_617" data-name="Tracé 617" d="M536.109,253.25a3.865,3.865,0,0,1-1.537-1.476,4.413,4.413,0,0,1,0-4.276,3.884,3.884,0,0,1,1.537-1.469,4.589,4.589,0,0,1,2.21-.529,4.649,4.649,0,0,1,2.225.529,3.878,3.878,0,0,1,1.537,1.469,4.414,4.414,0,0,1,0,4.276,3.865,3.865,0,0,1-1.537,1.476,4.621,4.621,0,0,1-2.225.529A4.559,4.559,0,0,1,536.109,253.25Zm3.936-1.786a2.8,2.8,0,0,0,0-3.662,2.314,2.314,0,0,0-1.726-.7,2.287,2.287,0,0,0-1.718.7,2.825,2.825,0,0,0,0,3.662,2.284,2.284,0,0,0,1.718.7A2.314,2.314,0,0,0,540.045,251.464Z" transform="translate(-522.425 -242.441)"/>
      <path id="Tracé_618" data-name="Tracé 618" d="M646.209,253.25a3.865,3.865,0,0,1-1.537-1.476,4.413,4.413,0,0,1,0-4.276,3.884,3.884,0,0,1,1.537-1.469,4.589,4.589,0,0,1,2.21-.529,4.648,4.648,0,0,1,2.225.529,3.877,3.877,0,0,1,1.537,1.469,4.413,4.413,0,0,1,0,4.276,3.865,3.865,0,0,1-1.537,1.476,4.621,4.621,0,0,1-2.225.529A4.559,4.559,0,0,1,646.209,253.25Zm3.936-1.786a2.8,2.8,0,0,0,0-3.662,2.313,2.313,0,0,0-1.726-.7,2.287,2.287,0,0,0-1.718.7,2.825,2.825,0,0,0,0,3.662,2.284,2.284,0,0,0,1.718.7A2.313,2.313,0,0,0,650.145,251.464Z" transform="translate(-622.762 -242.441)"/>
      <path id="Tracé_619" data-name="Tracé 619" d="M762.918,245.59v6.858q0,4.269-4.359,4.269a8.086,8.086,0,0,1-2.21-.3,4.7,4.7,0,0,1-1.726-.855l.848-1.423a4.045,4.045,0,0,0,1.34.7,5.256,5.256,0,0,0,1.642.265,2.712,2.712,0,0,0,1.953-.606,2.473,2.473,0,0,0,.621-1.847v-.424a3.116,3.116,0,0,1-1.18.8,4.159,4.159,0,0,1-1.529.272,4.383,4.383,0,0,1-2.081-.492,3.694,3.694,0,0,1-1.469-1.385,4.139,4.139,0,0,1,0-4.079,3.663,3.663,0,0,1,1.469-1.37,4.442,4.442,0,0,1,2.081-.484,4.271,4.271,0,0,1,1.6.287,2.945,2.945,0,0,1,1.2.878V245.59h1.8Zm-2.55,5.472a2.183,2.183,0,0,0,.689-1.672,2.128,2.128,0,0,0-.689-1.65,2.5,2.5,0,0,0-1.764-.636,2.537,2.537,0,0,0-1.779.636,2.142,2.142,0,0,0-.689,1.65,2.2,2.2,0,0,0,.689,1.672,2.5,2.5,0,0,0,1.779.643,2.466,2.466,0,0,0,1.764-.643Z" transform="translate(-723.107 -242.441)"/>
      <path id="Tracé_620" data-name="Tracé 620" d="M880.19,211.01h1.892v11.232H880.19Z" transform="translate(-837.897 -211.01)"/>
      <path id="Tracé_621" data-name="Tracé 621" d="M930.254,250.256h-6.342a2.195,2.195,0,0,0,.871,1.415,2.85,2.85,0,0,0,1.749.522,2.947,2.947,0,0,0,2.195-.878l1.015,1.165a3.433,3.433,0,0,1-1.377.984,5.459,5.459,0,0,1-4.224-.2,3.816,3.816,0,0,1-1.567-1.476,4.451,4.451,0,0,1-.015-4.268,3.81,3.81,0,0,1,1.491-1.476,4.353,4.353,0,0,1,2.15-.529,4.211,4.211,0,0,1,2.111.522,3.7,3.7,0,0,1,1.453,1.469,4.45,4.45,0,0,1,.522,2.188c0,.131-.01.317-.03.56Zm-5.593-2.687A2.26,2.26,0,0,0,923.9,249h4.586a2.21,2.21,0,0,0-2.285-1.969,2.265,2.265,0,0,0-1.537.537Z" transform="translate(-876.018 -242.46)"/>
      <path id="Tracé_622" data-name="Tracé 622" d="M1091.609,218.634a3.492,3.492,0,0,1,1.567,1.3,3.975,3.975,0,0,1,0,4.019,3.479,3.479,0,0,1-1.567,1.31,5.873,5.873,0,0,1-2.4.454h-2.392v3.058h-1.968v-10.6h4.359A5.879,5.879,0,0,1,1091.609,218.634Zm-.537,4.875a2.158,2.158,0,0,0,0-3.118,3.022,3.022,0,0,0-1.953-.545h-2.3v4.208h2.3a3.022,3.022,0,0,0,1.953-.545Z" transform="translate(-1024.409 -217.544)"/>
      <path id="Tracé_623" data-name="Tracé 623" d="M1206.74,211.01h1.892v11.232h-1.892Z" transform="translate(-1135.49 -211.01)"/>
      <path id="Tracé_624" data-name="Tracé 624" d="M1255.984,246.346a3.306,3.306,0,0,1,.946,2.581v4.738h-1.786v-.984a2.2,2.2,0,0,1-.991.81,3.886,3.886,0,0,1-1.552.28,3.8,3.8,0,0,1-1.589-.31,2.446,2.446,0,0,1-1.052-.863,2.188,2.188,0,0,1-.371-1.249,2.141,2.141,0,0,1,.81-1.749,4.023,4.023,0,0,1,2.551-.659h2.089v-.121a1.657,1.657,0,0,0-.507-1.3,2.194,2.194,0,0,0-1.506-.454,4.357,4.357,0,0,0-1.34.212,3.3,3.3,0,0,0-1.113.591l-.741-1.377a4.584,4.584,0,0,1,1.529-.741,6.818,6.818,0,0,1,1.892-.257,3.945,3.945,0,0,1,2.732.855Zm-1.726,5.722a1.776,1.776,0,0,0,.779-.931V250.2h-1.953q-1.635,0-1.635,1.075a.966.966,0,0,0,.409.818,1.87,1.87,0,0,0,1.135.3,2.413,2.413,0,0,0,1.264-.325Z" transform="translate(-1174.54 -242.432)"/>
      <path id="Tracé_625" data-name="Tracé 625" d="M1350.146,246.52l-3.784,8.734a4.063,4.063,0,0,1-1.287,1.854,3.082,3.082,0,0,1-1.831.537,3.761,3.761,0,0,1-1.2-.2,2.634,2.634,0,0,1-.968-.545l.757-1.392a2.068,2.068,0,0,0,.643.409,1.964,1.964,0,0,0,.749.152,1.289,1.289,0,0,0,.825-.257,2.28,2.28,0,0,0,.6-.863l.136-.317-3.527-8.114h1.968l2.543,5.98,2.558-5.98h1.816Z" transform="translate(-1257.916 -243.371)"/>
    </g>
    <g id="Groupe_1774" data-name="Groupe 1774" transform="translate(0.355)">
      <path id="Tracé_626" data-name="Tracé 626" d="M410.3,84.093a2.62,2.62,0,0,1-1.2-.279,3.142,3.142,0,0,1-.966-.751A3.542,3.542,0,0,1,407.5,82a3.358,3.358,0,0,1-.229-1.223,3.5,3.5,0,0,1,.229-1.249,3.406,3.406,0,0,1,.637-1.048,2.981,2.981,0,0,1,.961-.719,2.791,2.791,0,0,1,1.2-.261,2.83,2.83,0,0,1,1.556.394,2.534,2.534,0,0,1,.925,1.026l-.631.44a1.9,1.9,0,0,0-.779-.842,2.2,2.2,0,0,0-1.09-.275,1.911,1.911,0,0,0-.9.21,2.158,2.158,0,0,0-.692.572,2.625,2.625,0,0,0-.44.819,3.008,3.008,0,0,0-.151.952,2.849,2.849,0,0,0,.169.984,2.526,2.526,0,0,0,.481.815,2.32,2.32,0,0,0,.724.554,2,2,0,0,0,.889.2,2.137,2.137,0,0,0,1.062-.284,3.2,3.2,0,0,0,.952-.87v.851a2.643,2.643,0,0,1-2.079,1.044Zm1.978-2.665h-1.4v-.623h2.1v3.241h-.7Z" transform="translate(-407.27 -77.5)"/>
      <path id="Tracé_627" data-name="Tracé 627" d="M490.164,83.789v.732H485.75v-6.5h4.331v.732h-3.507v2.106h3.05v.686h-3.05v2.244Z" transform="translate(-478.791 -77.974)"/>
      <path id="Tracé_628" data-name="Tracé 628" d="M546.511,78.752h-2.244v5.769h-.824V78.752H541.2V78.02h5.311Z" transform="translate(-529.323 -77.974)"/>
      <path id="Tracé_629" data-name="Tracé 629" d="M634.65,84.521v-6.5h.824v6.5Z" transform="translate(-614.486 -77.974)"/>
      <path id="Tracé_630" data-name="Tracé 630" d="M662.324,79.54v4.981H661.5v-6.5h.7L666.17,83.1V78.029h.824v6.492h-.751Z" transform="translate(-638.955 -77.974)"/>
      <path id="Tracé_631" data-name="Tracé 631" d="M765.448,84.093a2.778,2.778,0,0,1-1.245-.275,3.029,3.029,0,0,1-.966-.747,3.5,3.5,0,0,1-.847-2.275,3.424,3.424,0,0,1,.233-1.241,3.461,3.461,0,0,1,.65-1.053,3.133,3.133,0,0,1,.975-.732,2.874,2.874,0,0,1,2.463.013,3.061,3.061,0,0,1,.961.76,3.566,3.566,0,0,1,.622,1.062,3.419,3.419,0,0,1-.654,3.493,3.08,3.08,0,0,1-.975.728,2.8,2.8,0,0,1-1.218.265Zm-2.225-3.3a2.886,2.886,0,0,0,.161.957,2.632,2.632,0,0,0,.453.819,2.191,2.191,0,0,0,.705.568,2.1,2.1,0,0,0,1.85-.01,2.19,2.19,0,0,0,.7-.586,2.677,2.677,0,0,0,.44-.824,2.924,2.924,0,0,0,.151-.925,2.849,2.849,0,0,0-.161-.952,2.668,2.668,0,0,0-.458-.819,2.183,2.183,0,0,0-.7-.568,2.105,2.105,0,0,0-1.836.01,2.143,2.143,0,0,0-.7.582,2.755,2.755,0,0,0-.444.819A2.844,2.844,0,0,0,763.223,80.8Z" transform="translate(-730.898 -77.5)"/>
      <path id="Tracé_632" data-name="Tracé 632" d="M845.194,79.54v4.981h-.824v-6.5h.7l3.975,5.082V78.029h.824v6.492h-.751l-3.919-4.981Z" transform="translate(-805.609 -77.974)"/>
    </g>
  </g>
</svg>
