<svg xmlns="http://www.w3.org/2000/svg" width="52.282" height="41.22" viewBox="0 0 52.282 41.22">
  <path id="Tracé_609" data-name="Tracé 609" d="M501.153,40.85a26.462,26.462,0,0,1,1.317-8.3,22.417,22.417,0,0,1,4.181-7.441,28.859,28.859,0,0,1,7.441-6.157,44.275,44.275,0,0,1,11.161-4.51v6.98q-2.9,1.054-5.136,2.107A17.749,17.749,0,0,0,516.4,25.8a8.557,8.557,0,0,0-2.239,2.7,7.5,7.5,0,0,0-.757,3.457,3,3,0,0,0,.724,2.107,9.444,9.444,0,0,0,1.844,1.514q1.12.724,2.371,1.482a11.911,11.911,0,0,1,2.37,1.91,9.041,9.041,0,0,1,1.844,2.93,11.947,11.947,0,0,1,.724,4.478q0,4.543-2.8,6.914a10.377,10.377,0,0,1-6.947,2.37,11.211,11.211,0,0,1-9.054-3.951Q501.153,47.763,501.153,40.85Zm-28.182,0a26.463,26.463,0,0,1,1.317-8.3,22.42,22.42,0,0,1,4.181-7.441,28.859,28.859,0,0,1,7.441-6.157,44.275,44.275,0,0,1,11.161-4.51v6.98a54.316,54.316,0,0,0-5.169,2.107,18.035,18.035,0,0,0-3.687,2.272,8.556,8.556,0,0,0-2.239,2.7,7.5,7.5,0,0,0-.757,3.457,3,3,0,0,0,.724,2.107,9.445,9.445,0,0,0,1.844,1.514q1.12.724,2.371,1.482a11.913,11.913,0,0,1,2.37,1.91,9.041,9.041,0,0,1,1.844,2.93,11.946,11.946,0,0,1,.724,4.478q0,4.543-2.8,6.914a10.377,10.377,0,0,1-6.947,2.37,11.211,11.211,0,0,1-9.054-3.951Q472.971,47.763,472.971,40.85Z" transform="translate(-472.971 -14.445)"/>
</svg>
